<svg id="visual" viewBox="0 0 900 600" width="900" height="600" xmlns="http://www.w3.org/2000/svg" xmlns:xlink="http://www.w3.org/1999/xlink" version="1.1"><g stroke-width="1" stroke-linejoin="bevel"><path d="M456 335.9L538 256.1L450 246.1Z" fill="#0f0f0f" stroke="#0f0f0f"></path><path d="M456 335.9L549 348.9L538 256.1Z" fill="#161616" stroke="#161616"></path><path d="M636 173.4L536 172.4L538 256.1Z" fill="#141414" stroke="#141414"></path><path d="M538 256.1L536 172.4L450 246.1Z" fill="#050505" stroke="#050505"></path><path d="M536 172.4L439 172.4L450 246.1Z" fill="#050505" stroke="#050505"></path><path d="M353 258.1L367 352.9L456 335.9Z" fill="#141414" stroke="#141414"></path><path d="M353 258.1L456 335.9L450 246.1Z" fill="#080808" stroke="#080808"></path><path d="M456 335.9L534 432.6L549 348.9Z" fill="#050505" stroke="#050505"></path><path d="M362 173.4L353 258.1L450 246.1Z" fill="#050505" stroke="#050505"></path><path d="M549 348.9L626 331.9L538 256.1Z" fill="#050505" stroke="#050505"></path><path d="M367 352.9L460 434.6L456 335.9Z" fill="#000000" stroke="#000000"></path><path d="M549 348.9L634 435.6L626 331.9Z" fill="#000000" stroke="#000000"></path><path d="M460 434.6L534 432.6L456 335.9Z" fill="#0d0d0d" stroke="#0d0d0d"></path><path d="M626 331.9L640 254.1L538 256.1Z" fill="#050505" stroke="#050505"></path><path d="M439 172.4L362 173.4L450 246.1Z" fill="#0f0f0f" stroke="#0f0f0f"></path><path d="M640 254.1L636 173.4L538 256.1Z" fill="#030303" stroke="#030303"></path><path d="M268 438.6L366 435.6L367 352.9Z" fill="#0b0b0b" stroke="#0b0b0b"></path><path d="M367 352.9L366 435.6L460 434.6Z" fill="#0b0b0b" stroke="#0b0b0b"></path><path d="M541 82.7L445 95.7L536 172.4Z" fill="#030303" stroke="#030303"></path><path d="M536 172.4L445 95.7L439 172.4Z" fill="#141414" stroke="#141414"></path><path d="M439 172.4L445 95.7L362 173.4Z" fill="#080808" stroke="#080808"></path><path d="M620 508.3L634 435.6L534 432.6Z" fill="#111111" stroke="#111111"></path><path d="M534 432.6L634 435.6L549 348.9Z" fill="#050505" stroke="#050505"></path><path d="M719 335.9L721 253.1L640 254.1Z" fill="#080808" stroke="#080808"></path><path d="M539 509.3L534 432.6L460 434.6Z" fill="#050505" stroke="#050505"></path><path d="M622 84.7L541 82.7L536 172.4Z" fill="#161616" stroke="#161616"></path><path d="M269 247.1L272 338.9L353 258.1Z" fill="#0b0b0b" stroke="#0b0b0b"></path><path d="M353 258.1L272 338.9L367 352.9Z" fill="#131313" stroke="#131313"></path><path d="M270 178.4L353 258.1L362 173.4Z" fill="#0d0d0d" stroke="#0d0d0d"></path><path d="M270 178.4L269 247.1L353 258.1Z" fill="#080808" stroke="#080808"></path><path d="M455 521.3L539 509.3L460 434.6Z" fill="#141414" stroke="#141414"></path><path d="M719 335.9L640 254.1L626 331.9Z" fill="#161616" stroke="#161616"></path><path d="M640 254.1L721 253.1L636 173.4Z" fill="#131313" stroke="#131313"></path><path d="M636 173.4L622 84.7L536 172.4Z" fill="#0b0b0b" stroke="#0b0b0b"></path><path d="M721 421.6L719 335.9L626 331.9Z" fill="#141414" stroke="#141414"></path><path d="M366 435.6L455 521.3L460 434.6Z" fill="#111111" stroke="#111111"></path><path d="M451 0L357 90.7L445 95.7Z" fill="#000000" stroke="#000000"></path><path d="M445 95.7L357 90.7L362 173.4Z" fill="#030303" stroke="#030303"></path><path d="M723 85.7L622 84.7L636 173.4Z" fill="#161616" stroke="#161616"></path><path d="M357 90.7L270 178.4L362 173.4Z" fill="#030303" stroke="#030303"></path><path d="M539 509.3L620 508.3L534 432.6Z" fill="#131313" stroke="#131313"></path><path d="M634 435.6L721 421.6L626 331.9Z" fill="#0f0f0f" stroke="#0f0f0f"></path><path d="M548 600L620 508.3L539 509.3Z" fill="#141414" stroke="#141414"></path><path d="M272 515.3L369 523.3L366 435.6Z" fill="#080808" stroke="#080808"></path><path d="M366 435.6L369 523.3L455 521.3Z" fill="#131313" stroke="#131313"></path><path d="M808 258.1L728 170.4L721 253.1Z" fill="#131313" stroke="#131313"></path><path d="M721 253.1L728 170.4L636 173.4Z" fill="#0f0f0f" stroke="#0f0f0f"></path><path d="M716 510.3L721 421.6L634 435.6Z" fill="#000000" stroke="#000000"></path><path d="M719 335.9L808 258.1L721 253.1Z" fill="#050505" stroke="#050505"></path><path d="M272 338.9L268 438.6L367 352.9Z" fill="#080808" stroke="#080808"></path><path d="M184 422.6L268 438.6L272 338.9Z" fill="#0b0b0b" stroke="#0b0b0b"></path><path d="M529 0L451 0L541 82.7Z" fill="#111111" stroke="#111111"></path><path d="M541 82.7L451 0L445 95.7Z" fill="#0b0b0b" stroke="#0b0b0b"></path><path d="M622 84.7L529 0L541 82.7Z" fill="#030303" stroke="#030303"></path><path d="M638 0L529 0L622 84.7Z" fill="#131313" stroke="#131313"></path><path d="M270 178.4L190 251.1L269 247.1Z" fill="#0f0f0f" stroke="#0f0f0f"></path><path d="M269 247.1L190 251.1L272 338.9Z" fill="#141414" stroke="#141414"></path><path d="M189 169.4L190 251.1L270 178.4Z" fill="#161616" stroke="#161616"></path><path d="M262 83.7L270 178.4L357 90.7Z" fill="#000000" stroke="#000000"></path><path d="M353 0L262 83.7L357 90.7Z" fill="#0b0b0b" stroke="#0b0b0b"></path><path d="M728 170.4L723 85.7L636 173.4Z" fill="#0f0f0f" stroke="#0f0f0f"></path><path d="M369 523.3L448 600L455 521.3Z" fill="#141414" stroke="#141414"></path><path d="M455 521.3L548 600L539 509.3Z" fill="#080808" stroke="#080808"></path><path d="M359 600L448 600L369 523.3Z" fill="#0b0b0b" stroke="#0b0b0b"></path><path d="M190 515.3L272 515.3L268 438.6Z" fill="#030303" stroke="#030303"></path><path d="M268 438.6L272 515.3L366 435.6Z" fill="#050505" stroke="#050505"></path><path d="M709 600L716 510.3L620 508.3Z" fill="#0f0f0f" stroke="#0f0f0f"></path><path d="M620 508.3L716 510.3L634 435.6Z" fill="#0b0b0b" stroke="#0b0b0b"></path><path d="M448 600L548 600L455 521.3Z" fill="#0d0d0d" stroke="#0d0d0d"></path><path d="M451 0L353 0L357 90.7Z" fill="#030303" stroke="#030303"></path><path d="M808 333.9L808 258.1L719 335.9Z" fill="#131313" stroke="#131313"></path><path d="M728 170.4L816 81.7L723 85.7Z" fill="#0f0f0f" stroke="#0f0f0f"></path><path d="M808 333.9L719 335.9L721 421.6Z" fill="#000000" stroke="#000000"></path><path d="M811 433.6L808 333.9L721 421.6Z" fill="#0d0d0d" stroke="#0d0d0d"></path><path d="M262 83.7L189 169.4L270 178.4Z" fill="#000000" stroke="#000000"></path><path d="M81 250.1L169 334.9L190 251.1Z" fill="#161616" stroke="#161616"></path><path d="M190 251.1L169 334.9L272 338.9Z" fill="#030303" stroke="#030303"></path><path d="M723 85.7L638 0L622 84.7Z" fill="#161616" stroke="#161616"></path><path d="M169 334.9L184 422.6L272 338.9Z" fill="#080808" stroke="#080808"></path><path d="M272 515.3L359 600L369 523.3Z" fill="#050505" stroke="#050505"></path><path d="M548 600L625 600L620 508.3Z" fill="#161616" stroke="#161616"></path><path d="M900 250.1L816 180.4L808 258.1Z" fill="#161616" stroke="#161616"></path><path d="M808 258.1L816 180.4L728 170.4Z" fill="#030303" stroke="#030303"></path><path d="M716 510.3L811 433.6L721 421.6Z" fill="#0f0f0f" stroke="#0f0f0f"></path><path d="M808 333.9L900 250.1L808 258.1Z" fill="#080808" stroke="#080808"></path><path d="M811 515.3L811 433.6L716 510.3Z" fill="#141414" stroke="#141414"></path><path d="M353 0L271 0L262 83.7Z" fill="#050505" stroke="#050505"></path><path d="M262 83.7L185 85.7L189 169.4Z" fill="#0f0f0f" stroke="#0f0f0f"></path><path d="M812 0L712 0L723 85.7Z" fill="#0b0b0b" stroke="#0b0b0b"></path><path d="M723 85.7L712 0L638 0Z" fill="#141414" stroke="#141414"></path><path d="M189 0L185 85.7L262 83.7Z" fill="#111111" stroke="#111111"></path><path d="M83 173.4L81 250.1L190 251.1Z" fill="#0b0b0b" stroke="#0b0b0b"></path><path d="M184 422.6L190 515.3L268 438.6Z" fill="#0b0b0b" stroke="#0b0b0b"></path><path d="M272 515.3L260 600L359 600Z" fill="#141414" stroke="#141414"></path><path d="M85 512.3L190 515.3L184 422.6Z" fill="#161616" stroke="#161616"></path><path d="M625 600L709 600L620 508.3Z" fill="#131313" stroke="#131313"></path><path d="M816 180.4L816 81.7L728 170.4Z" fill="#050505" stroke="#050505"></path><path d="M190 515.3L260 600L272 515.3Z" fill="#131313" stroke="#131313"></path><path d="M709 600L811 515.3L716 510.3Z" fill="#0d0d0d" stroke="#0d0d0d"></path><path d="M900 350.9L900 250.1L808 333.9Z" fill="#0f0f0f" stroke="#0f0f0f"></path><path d="M83 173.4L190 251.1L189 169.4Z" fill="#161616" stroke="#161616"></path><path d="M169 334.9L80 339.9L184 422.6Z" fill="#131313" stroke="#131313"></path><path d="M900 350.9L808 333.9L811 433.6Z" fill="#000000" stroke="#000000"></path><path d="M816 180.4L900 90.7L816 81.7Z" fill="#0d0d0d" stroke="#0d0d0d"></path><path d="M81 250.1L80 339.9L169 334.9Z" fill="#0d0d0d" stroke="#0d0d0d"></path><path d="M900 438.6L900 350.9L811 433.6Z" fill="#0f0f0f" stroke="#0f0f0f"></path><path d="M271 0L189 0L262 83.7Z" fill="#030303" stroke="#030303"></path><path d="M88 92.7L83 173.4L189 169.4Z" fill="#0f0f0f" stroke="#0f0f0f"></path><path d="M88 92.7L189 169.4L185 85.7Z" fill="#0b0b0b" stroke="#0b0b0b"></path><path d="M900 250.1L900 180.4L816 180.4Z" fill="#000000" stroke="#000000"></path><path d="M816 81.7L812 0L723 85.7Z" fill="#0d0d0d" stroke="#0d0d0d"></path><path d="M900 0L812 0L816 81.7Z" fill="#141414" stroke="#141414"></path><path d="M80 339.9L81 436.6L184 422.6Z" fill="#050505" stroke="#050505"></path><path d="M190 515.3L175 600L260 600Z" fill="#030303" stroke="#030303"></path><path d="M811 515.3L900 438.6L811 433.6Z" fill="#161616" stroke="#161616"></path><path d="M85 512.3L175 600L190 515.3Z" fill="#080808" stroke="#080808"></path><path d="M87 0L88 92.7L185 85.7Z" fill="#0f0f0f" stroke="#0f0f0f"></path><path d="M709 600L818 600L811 515.3Z" fill="#030303" stroke="#030303"></path><path d="M811 515.3L900 520.3L900 438.6Z" fill="#000000" stroke="#000000"></path><path d="M900 180.4L900 90.7L816 180.4Z" fill="#141414" stroke="#141414"></path><path d="M81 436.6L85 512.3L184 422.6Z" fill="#111111" stroke="#111111"></path><path d="M818 600L900 520.3L811 515.3Z" fill="#0b0b0b" stroke="#0b0b0b"></path><path d="M0 176.4L81 250.1L83 173.4Z" fill="#0d0d0d" stroke="#0d0d0d"></path><path d="M0 176.4L0 254.1L81 250.1Z" fill="#111111" stroke="#111111"></path><path d="M81 250.1L0 254.1L80 339.9Z" fill="#161616" stroke="#161616"></path><path d="M80 339.9L0 436.6L81 436.6Z" fill="#0b0b0b" stroke="#0b0b0b"></path><path d="M81 436.6L0 507.3L85 512.3Z" fill="#0d0d0d" stroke="#0d0d0d"></path><path d="M0 254.1L0 337.9L80 339.9Z" fill="#141414" stroke="#141414"></path><path d="M189 0L87 0L185 85.7Z" fill="#0f0f0f" stroke="#0f0f0f"></path><path d="M88 92.7L0 176.4L83 173.4Z" fill="#030303" stroke="#030303"></path><path d="M900 90.7L900 0L816 81.7Z" fill="#0d0d0d" stroke="#0d0d0d"></path><path d="M0 75.7L0 176.4L88 92.7Z" fill="#0f0f0f" stroke="#0f0f0f"></path><path d="M85 512.3L94 600L175 600Z" fill="#030303" stroke="#030303"></path><path d="M0 600L94 600L85 512.3Z" fill="#141414" stroke="#141414"></path><path d="M0 337.9L0 436.6L80 339.9Z" fill="#111111" stroke="#111111"></path><path d="M818 600L900 600L900 520.3Z" fill="#0f0f0f" stroke="#0f0f0f"></path><path d="M87 0L0 75.7L88 92.7Z" fill="#0f0f0f" stroke="#0f0f0f"></path><path d="M0 436.6L0 507.3L81 436.6Z" fill="#131313" stroke="#131313"></path><path d="M87 0L0 0L0 75.7Z" fill="#161616" stroke="#161616"></path><path d="M0 507.3L0 600L85 512.3Z" fill="#0d0d0d" stroke="#0d0d0d"></path></g></svg>