<svg id="visual" viewBox="0 0 900 600" width="900" height="600" xmlns="http://www.w3.org/2000/svg" xmlns:xlink="http://www.w3.org/1999/xlink" version="1.1"><g stroke-width="1" stroke-linejoin="bevel"><path d="M485 288L489 190L410 200Z" fill="#1e1e1e" stroke="#1e1e1e"></path><path d="M410 200L387 313L485 288Z" fill="#161616" stroke="#161616"></path><path d="M489 190L405 116L410 200Z" fill="#000000" stroke="#000000"></path><path d="M410 200L307 293L387 313Z" fill="#000000" stroke="#000000"></path><path d="M485 288L606 206L489 190Z" fill="#050505" stroke="#050505"></path><path d="M489 190L515 82L405 116Z" fill="#000000" stroke="#000000"></path><path d="M405 116L302 208L410 200Z" fill="#161616" stroke="#161616"></path><path d="M302 208L307 293L410 200Z" fill="#050505" stroke="#050505"></path><path d="M611 117L515 82L489 190Z" fill="#131313" stroke="#131313"></path><path d="M282 392L410 402L387 313Z" fill="#0b0b0b" stroke="#0b0b0b"></path><path d="M387 313L410 402L485 288Z" fill="#191919" stroke="#191919"></path><path d="M485 288L616 317L606 206Z" fill="#1c1c1c" stroke="#1c1c1c"></path><path d="M410 402L505 407L485 288Z" fill="#000000" stroke="#000000"></path><path d="M505 407L616 317L485 288Z" fill="#050505" stroke="#050505"></path><path d="M700 191L611 117L606 206Z" fill="#212121" stroke="#212121"></path><path d="M606 206L611 117L489 190Z" fill="#191919" stroke="#191919"></path><path d="M393 0L316 81L405 116Z" fill="#000000" stroke="#000000"></path><path d="M405 116L316 81L302 208Z" fill="#242424" stroke="#242424"></path><path d="M307 293L282 392L387 313Z" fill="#242424" stroke="#242424"></path><path d="M212 285L282 392L307 293Z" fill="#0b0b0b" stroke="#0b0b0b"></path><path d="M505 407L613 414L616 317Z" fill="#0f0f0f" stroke="#0f0f0f"></path><path d="M607 497L613 414L505 407Z" fill="#050505" stroke="#050505"></path><path d="M607 0L492 0L515 82Z" fill="#212121" stroke="#212121"></path><path d="M515 82L492 0L405 116Z" fill="#1e1e1e" stroke="#1e1e1e"></path><path d="M492 0L393 0L405 116Z" fill="#0f0f0f" stroke="#0f0f0f"></path><path d="M199 210L212 285L302 208Z" fill="#191919" stroke="#191919"></path><path d="M302 208L212 285L307 293Z" fill="#1e1e1e" stroke="#1e1e1e"></path><path d="M715 316L700 191L616 317Z" fill="#0f0f0f" stroke="#0f0f0f"></path><path d="M616 317L700 191L606 206Z" fill="#000000" stroke="#000000"></path><path d="M611 117L607 0L515 82Z" fill="#161616" stroke="#161616"></path><path d="M412 503L491 485L410 402Z" fill="#0b0b0b" stroke="#0b0b0b"></path><path d="M410 402L491 485L505 407Z" fill="#161616" stroke="#161616"></path><path d="M209 81L199 210L302 208Z" fill="#242424" stroke="#242424"></path><path d="M296 497L412 503L410 402Z" fill="#000000" stroke="#000000"></path><path d="M687 380L715 316L616 317Z" fill="#131313" stroke="#131313"></path><path d="M715 480L687 380L613 414Z" fill="#0f0f0f" stroke="#0f0f0f"></path><path d="M613 414L687 380L616 317Z" fill="#242424" stroke="#242424"></path><path d="M393 0L319 0L316 81Z" fill="#131313" stroke="#131313"></path><path d="M316 81L209 81L302 208Z" fill="#0b0b0b" stroke="#0b0b0b"></path><path d="M789 107L700 100L700 191Z" fill="#191919" stroke="#191919"></path><path d="M700 191L700 100L611 117Z" fill="#0b0b0b" stroke="#0b0b0b"></path><path d="M700 100L607 0L611 117Z" fill="#131313" stroke="#131313"></path><path d="M215 0L209 81L316 81Z" fill="#191919" stroke="#191919"></path><path d="M500 600L607 497L491 485Z" fill="#242424" stroke="#242424"></path><path d="M491 485L607 497L505 407Z" fill="#0f0f0f" stroke="#0f0f0f"></path><path d="M87 382L208 411L212 285Z" fill="#191919" stroke="#191919"></path><path d="M212 285L208 411L282 392Z" fill="#0f0f0f" stroke="#0f0f0f"></path><path d="M282 392L296 497L410 402Z" fill="#0b0b0b" stroke="#0b0b0b"></path><path d="M208 411L296 497L282 392Z" fill="#161616" stroke="#161616"></path><path d="M319 0L215 0L316 81Z" fill="#1e1e1e" stroke="#1e1e1e"></path><path d="M105 91L117 206L199 210Z" fill="#242424" stroke="#242424"></path><path d="M105 91L199 210L209 81Z" fill="#161616" stroke="#161616"></path><path d="M199 210L117 206L212 285Z" fill="#161616" stroke="#161616"></path><path d="M785 0L701 0L700 100Z" fill="#1e1e1e" stroke="#1e1e1e"></path><path d="M700 100L701 0L607 0Z" fill="#1e1e1e" stroke="#1e1e1e"></path><path d="M808 384L790 309L715 316Z" fill="#050505" stroke="#050505"></path><path d="M715 316L790 309L700 191Z" fill="#242424" stroke="#242424"></path><path d="M808 384L715 316L687 380Z" fill="#0f0f0f" stroke="#0f0f0f"></path><path d="M607 497L715 480L613 414Z" fill="#050505" stroke="#050505"></path><path d="M813 204L789 107L700 191Z" fill="#0f0f0f" stroke="#0f0f0f"></path><path d="M790 309L813 204L700 191Z" fill="#0f0f0f" stroke="#0f0f0f"></path><path d="M394 600L500 600L412 503Z" fill="#000000" stroke="#000000"></path><path d="M412 503L500 600L491 485Z" fill="#0b0b0b" stroke="#0b0b0b"></path><path d="M607 497L708 600L715 480Z" fill="#0b0b0b" stroke="#0b0b0b"></path><path d="M295 600L394 600L296 497Z" fill="#000000" stroke="#000000"></path><path d="M296 497L394 600L412 503Z" fill="#1e1e1e" stroke="#1e1e1e"></path><path d="M208 411L185 487L296 497Z" fill="#0b0b0b" stroke="#0b0b0b"></path><path d="M87 382L185 487L208 411Z" fill="#0b0b0b" stroke="#0b0b0b"></path><path d="M215 0L105 91L209 81Z" fill="#131313" stroke="#131313"></path><path d="M0 215L82 315L117 206Z" fill="#050505" stroke="#050505"></path><path d="M117 206L82 315L212 285Z" fill="#131313" stroke="#131313"></path><path d="M715 480L808 384L687 380Z" fill="#1c1c1c" stroke="#1c1c1c"></path><path d="M790 309L900 283L813 204Z" fill="#1c1c1c" stroke="#1c1c1c"></path><path d="M500 600L610 600L607 497Z" fill="#191919" stroke="#191919"></path><path d="M715 480L796 514L808 384Z" fill="#1c1c1c" stroke="#1c1c1c"></path><path d="M82 315L87 382L212 285Z" fill="#1c1c1c" stroke="#1c1c1c"></path><path d="M195 600L295 600L296 497Z" fill="#1e1e1e" stroke="#1e1e1e"></path><path d="M900 96L785 0L789 107Z" fill="#161616" stroke="#161616"></path><path d="M789 107L785 0L700 100Z" fill="#0b0b0b" stroke="#0b0b0b"></path><path d="M215 0L88 0L105 91Z" fill="#1e1e1e" stroke="#1e1e1e"></path><path d="M0 102L0 215L117 206Z" fill="#161616" stroke="#161616"></path><path d="M708 600L796 514L715 480Z" fill="#191919" stroke="#191919"></path><path d="M610 600L708 600L607 497Z" fill="#1e1e1e" stroke="#1e1e1e"></path><path d="M111 600L195 600L185 487Z" fill="#1e1e1e" stroke="#1e1e1e"></path><path d="M185 487L195 600L296 497Z" fill="#1e1e1e" stroke="#1e1e1e"></path><path d="M808 384L900 283L790 309Z" fill="#161616" stroke="#161616"></path><path d="M813 204L900 190L789 107Z" fill="#1c1c1c" stroke="#1c1c1c"></path><path d="M900 391L900 283L808 384Z" fill="#161616" stroke="#161616"></path><path d="M900 283L900 190L813 204Z" fill="#050505" stroke="#050505"></path><path d="M0 102L117 206L105 91Z" fill="#212121" stroke="#212121"></path><path d="M82 315L0 381L87 382Z" fill="#131313" stroke="#131313"></path><path d="M87 382L89 512L185 487Z" fill="#131313" stroke="#131313"></path><path d="M0 486L89 512L87 382Z" fill="#1c1c1c" stroke="#1c1c1c"></path><path d="M0 215L0 307L82 315Z" fill="#0f0f0f" stroke="#0f0f0f"></path><path d="M900 190L900 96L789 107Z" fill="#1e1e1e" stroke="#1e1e1e"></path><path d="M900 512L900 391L808 384Z" fill="#242424" stroke="#242424"></path><path d="M88 0L0 102L105 91Z" fill="#0b0b0b" stroke="#0b0b0b"></path><path d="M0 307L0 381L82 315Z" fill="#161616" stroke="#161616"></path><path d="M89 512L111 600L185 487Z" fill="#131313" stroke="#131313"></path><path d="M0 600L111 600L89 512Z" fill="#1c1c1c" stroke="#1c1c1c"></path><path d="M708 600L802 600L796 514Z" fill="#191919" stroke="#191919"></path><path d="M796 514L900 512L808 384Z" fill="#1c1c1c" stroke="#1c1c1c"></path><path d="M900 96L900 0L785 0Z" fill="#1e1e1e" stroke="#1e1e1e"></path><path d="M88 0L0 0L0 102Z" fill="#131313" stroke="#131313"></path><path d="M0 381L0 486L87 382Z" fill="#050505" stroke="#050505"></path><path d="M802 600L900 512L796 514Z" fill="#1e1e1e" stroke="#1e1e1e"></path><path d="M802 600L900 600L900 512Z" fill="#131313" stroke="#131313"></path><path d="M0 486L0 600L89 512Z" fill="#212121" stroke="#212121"></path></g></svg>