<svg width="900" height="600" viewBox="0 0 900 600" fill="none" xmlns="http://www.w3.org/2000/svg">
<g clip-path="url(#clip0_44_2)">
<path d="M456 335.9L538 256.1L450 246.1L456 335.9Z" fill="#0F0F0F" fill-opacity="0.95" stroke="#0F0F0F" stroke-opacity="0.95" stroke-linejoin="bevel"/>
<path d="M456 335.9L549 348.9L538 256.1L456 335.9Z" fill="#161616" fill-opacity="0.95" stroke="#161616" stroke-opacity="0.95" stroke-linejoin="bevel"/>
<path d="M636 173.4L536 172.4L538 256.1L636 173.4Z" fill="#141414" fill-opacity="0.95" stroke="#141414" stroke-opacity="0.95" stroke-linejoin="bevel"/>
<path d="M538 256.1L536 172.4L450 246.1L538 256.1Z" fill="#050505" fill-opacity="0.95" stroke="#050505" stroke-opacity="0.95" stroke-linejoin="bevel"/>
<path d="M536 172.4H439L450 246.1L536 172.4Z" fill="#050505" fill-opacity="0.95" stroke="#050505" stroke-opacity="0.95" stroke-linejoin="bevel"/>
<path d="M353 258.1L367 352.9L456 335.9L353 258.1Z" fill="#141414" fill-opacity="0.95" stroke="#141414" stroke-opacity="0.95" stroke-linejoin="bevel"/>
<path d="M353 258.1L456 335.9L450 246.1L353 258.1Z" fill="#080808" fill-opacity="0.95" stroke="#080808" stroke-opacity="0.95" stroke-linejoin="bevel"/>
<path d="M456 335.9L534 432.6L549 348.9L456 335.9Z" fill="#050505" fill-opacity="0.95" stroke="#050505" stroke-opacity="0.95" stroke-linejoin="bevel"/>
<path d="M362 173.4L353 258.1L450 246.1L362 173.4Z" fill="#050505" fill-opacity="0.95" stroke="#050505" stroke-opacity="0.95" stroke-linejoin="bevel"/>
<path d="M549 348.9L626 331.9L538 256.1L549 348.9Z" fill="#050505" fill-opacity="0.95" stroke="#050505" stroke-opacity="0.95" stroke-linejoin="bevel"/>
<path d="M367 352.9L460 434.6L456 335.9L367 352.9Z" fill="black" fill-opacity="0.95" stroke="black" stroke-opacity="0.95" stroke-linejoin="bevel"/>
<path d="M549 348.9L634 435.6L626 331.9L549 348.9Z" fill="black" fill-opacity="0.95" stroke="black" stroke-opacity="0.95" stroke-linejoin="bevel"/>
<path d="M460 434.6L534 432.6L456 335.9L460 434.6Z" fill="#0D0D0D" fill-opacity="0.95" stroke="#0D0D0D" stroke-opacity="0.95" stroke-linejoin="bevel"/>
<path d="M626 331.9L640 254.1L538 256.1L626 331.9Z" fill="#050505" fill-opacity="0.95" stroke="#050505" stroke-opacity="0.95" stroke-linejoin="bevel"/>
<path d="M439 172.4L362 173.4L450 246.1L439 172.4Z" fill="#0F0F0F" fill-opacity="0.95" stroke="#0F0F0F" stroke-opacity="0.95" stroke-linejoin="bevel"/>
<path d="M640 254.1L636 173.4L538 256.1L640 254.1Z" fill="#030303" fill-opacity="0.95" stroke="#030303" stroke-opacity="0.95" stroke-linejoin="bevel"/>
<path d="M268 438.6L366 435.6L367 352.9L268 438.6Z" fill="#0B0B0B" fill-opacity="0.95" stroke="#0B0B0B" stroke-opacity="0.95" stroke-linejoin="bevel"/>
<path d="M367 352.9L366 435.6L460 434.6L367 352.9Z" fill="#0B0B0B" fill-opacity="0.95" stroke="#0B0B0B" stroke-opacity="0.95" stroke-linejoin="bevel"/>
<path d="M541 82.7L445 95.7L536 172.4L541 82.7Z" fill="#030303" fill-opacity="0.95" stroke="#030303" stroke-opacity="0.95" stroke-linejoin="bevel"/>
<path d="M536 172.4L445 95.7L439 172.4H536Z" fill="#141414" fill-opacity="0.95" stroke="#141414" stroke-opacity="0.95" stroke-linejoin="bevel"/>
<path d="M439 172.4L445 95.7L362 173.4L439 172.4Z" fill="#080808" fill-opacity="0.95" stroke="#080808" stroke-opacity="0.95" stroke-linejoin="bevel"/>
<path d="M620 508.3L634 435.6L534 432.6L620 508.3Z" fill="#111111" fill-opacity="0.95" stroke="#111111" stroke-opacity="0.95" stroke-linejoin="bevel"/>
<path d="M534 432.6L634 435.6L549 348.9L534 432.6Z" fill="#050505" fill-opacity="0.95" stroke="#050505" stroke-opacity="0.95" stroke-linejoin="bevel"/>
<path d="M719 335.9L721 253.1L640 254.1L719 335.9Z" fill="#080808" fill-opacity="0.95" stroke="#080808" stroke-opacity="0.95" stroke-linejoin="bevel"/>
<path d="M539 509.3L534 432.6L460 434.6L539 509.3Z" fill="#050505" fill-opacity="0.95" stroke="#050505" stroke-opacity="0.95" stroke-linejoin="bevel"/>
<path d="M622 84.7L541 82.7L536 172.4L622 84.7Z" fill="#161616" fill-opacity="0.95" stroke="#161616" stroke-opacity="0.95" stroke-linejoin="bevel"/>
<path d="M269 247.1L272 338.9L353 258.1L269 247.1Z" fill="#0B0B0B" fill-opacity="0.95" stroke="#0B0B0B" stroke-opacity="0.95" stroke-linejoin="bevel"/>
<path d="M353 258.1L272 338.9L367 352.9L353 258.1Z" fill="#131313" fill-opacity="0.95" stroke="#131313" stroke-opacity="0.95" stroke-linejoin="bevel"/>
<path d="M270 178.4L353 258.1L362 173.4L270 178.4Z" fill="#0D0D0D" fill-opacity="0.95" stroke="#0D0D0D" stroke-opacity="0.95" stroke-linejoin="bevel"/>
<path d="M270 178.4L269 247.1L353 258.1L270 178.4Z" fill="#080808" fill-opacity="0.95" stroke="#080808" stroke-opacity="0.95" stroke-linejoin="bevel"/>
<path d="M455 521.3L539 509.3L460 434.6L455 521.3Z" fill="#141414" fill-opacity="0.95" stroke="#141414" stroke-opacity="0.95" stroke-linejoin="bevel"/>
<path d="M719 335.9L640 254.1L626 331.9L719 335.9Z" fill="#161616" fill-opacity="0.95" stroke="#161616" stroke-opacity="0.95" stroke-linejoin="bevel"/>
<path d="M640 254.1L721 253.1L636 173.4L640 254.1Z" fill="#131313" fill-opacity="0.95" stroke="#131313" stroke-opacity="0.95" stroke-linejoin="bevel"/>
<path d="M636 173.4L622 84.7L536 172.4L636 173.4Z" fill="#0B0B0B" fill-opacity="0.95" stroke="#0B0B0B" stroke-opacity="0.95" stroke-linejoin="bevel"/>
<path d="M721 421.6L719 335.9L626 331.9L721 421.6Z" fill="#141414" fill-opacity="0.95" stroke="#141414" stroke-opacity="0.95" stroke-linejoin="bevel"/>
<path d="M366 435.6L455 521.3L460 434.6L366 435.6Z" fill="#111111" fill-opacity="0.95" stroke="#111111" stroke-opacity="0.95" stroke-linejoin="bevel"/>
<path d="M451 0L357 90.7L445 95.7L451 0Z" fill="black" fill-opacity="0.95" stroke="black" stroke-opacity="0.95" stroke-linejoin="bevel"/>
<path d="M445 95.7L357 90.7L362 173.4L445 95.7Z" fill="#030303" fill-opacity="0.95" stroke="#030303" stroke-opacity="0.95" stroke-linejoin="bevel"/>
<path d="M723 85.7L622 84.7L636 173.4L723 85.7Z" fill="#161616" fill-opacity="0.95" stroke="#161616" stroke-opacity="0.95" stroke-linejoin="bevel"/>
<path d="M357 90.7L270 178.4L362 173.4L357 90.7Z" fill="#030303" fill-opacity="0.95" stroke="#030303" stroke-opacity="0.95" stroke-linejoin="bevel"/>
<path d="M539 509.3L620 508.3L534 432.6L539 509.3Z" fill="#131313" fill-opacity="0.95" stroke="#131313" stroke-opacity="0.95" stroke-linejoin="bevel"/>
<path d="M634 435.6L721 421.6L626 331.9L634 435.6Z" fill="#0F0F0F" fill-opacity="0.95" stroke="#0F0F0F" stroke-opacity="0.95" stroke-linejoin="bevel"/>
<path d="M548 600L620 508.3L539 509.3L548 600Z" fill="#141414" fill-opacity="0.95" stroke="#141414" stroke-opacity="0.95" stroke-linejoin="bevel"/>
<path d="M272 515.3L369 523.3L366 435.6L272 515.3Z" fill="#080808" fill-opacity="0.95" stroke="#080808" stroke-opacity="0.95" stroke-linejoin="bevel"/>
<path d="M366 435.6L369 523.3L455 521.3L366 435.6Z" fill="#131313" fill-opacity="0.95" stroke="#131313" stroke-opacity="0.95" stroke-linejoin="bevel"/>
<path d="M808 258.1L728 170.4L721 253.1L808 258.1Z" fill="#131313" fill-opacity="0.95" stroke="#131313" stroke-opacity="0.95" stroke-linejoin="bevel"/>
<path d="M721 253.1L728 170.4L636 173.4L721 253.1Z" fill="#0F0F0F" fill-opacity="0.95" stroke="#0F0F0F" stroke-opacity="0.95" stroke-linejoin="bevel"/>
<path d="M716 510.3L721 421.6L634 435.6L716 510.3Z" fill="black" fill-opacity="0.95" stroke="black" stroke-opacity="0.95" stroke-linejoin="bevel"/>
<path d="M719 335.9L808 258.1L721 253.1L719 335.9Z" fill="#050505" fill-opacity="0.95" stroke="#050505" stroke-opacity="0.95" stroke-linejoin="bevel"/>
<path d="M272 338.9L268 438.6L367 352.9L272 338.9Z" fill="#080808" fill-opacity="0.95" stroke="#080808" stroke-opacity="0.95" stroke-linejoin="bevel"/>
<path d="M184 422.6L268 438.6L272 338.9L184 422.6Z" fill="#0B0B0B" fill-opacity="0.95" stroke="#0B0B0B" stroke-opacity="0.95" stroke-linejoin="bevel"/>
<path d="M529 0H451L541 82.7L529 0Z" fill="#111111" fill-opacity="0.95" stroke="#111111" stroke-opacity="0.95" stroke-linejoin="bevel"/>
<path d="M541 82.7L451 0L445 95.7L541 82.7Z" fill="#0B0B0B" fill-opacity="0.95" stroke="#0B0B0B" stroke-opacity="0.95" stroke-linejoin="bevel"/>
<path d="M622 84.7L529 0L541 82.7L622 84.7Z" fill="#030303" fill-opacity="0.95" stroke="#030303" stroke-opacity="0.95" stroke-linejoin="bevel"/>
<path d="M638 0H529L622 84.7L638 0Z" fill="#131313" fill-opacity="0.95" stroke="#131313" stroke-opacity="0.95" stroke-linejoin="bevel"/>
<path d="M270 178.4L190 251.1L269 247.1L270 178.4Z" fill="#0F0F0F" fill-opacity="0.95" stroke="#0F0F0F" stroke-opacity="0.95" stroke-linejoin="bevel"/>
<path d="M269 247.1L190 251.1L272 338.9L269 247.1Z" fill="#141414" fill-opacity="0.95" stroke="#141414" stroke-opacity="0.95" stroke-linejoin="bevel"/>
<path d="M189 169.4L190 251.1L270 178.4L189 169.4Z" fill="#161616" fill-opacity="0.95" stroke="#161616" stroke-opacity="0.95" stroke-linejoin="bevel"/>
<path d="M262 83.7L270 178.4L357 90.7L262 83.7Z" fill="black" fill-opacity="0.95" stroke="black" stroke-opacity="0.95" stroke-linejoin="bevel"/>
<path d="M353 0L262 83.7L357 90.7L353 0Z" fill="#0B0B0B" fill-opacity="0.95" stroke="#0B0B0B" stroke-opacity="0.95" stroke-linejoin="bevel"/>
<path d="M728 170.4L723 85.7L636 173.4L728 170.4Z" fill="#0F0F0F" fill-opacity="0.95" stroke="#0F0F0F" stroke-opacity="0.95" stroke-linejoin="bevel"/>
<path d="M369 523.3L448 600L455 521.3L369 523.3Z" fill="#141414" fill-opacity="0.95" stroke="#141414" stroke-opacity="0.95" stroke-linejoin="bevel"/>
<path d="M455 521.3L548 600L539 509.3L455 521.3Z" fill="#080808" fill-opacity="0.95" stroke="#080808" stroke-opacity="0.95" stroke-linejoin="bevel"/>
<path d="M359 600H448L369 523.3L359 600Z" fill="#0B0B0B" fill-opacity="0.95" stroke="#0B0B0B" stroke-opacity="0.95" stroke-linejoin="bevel"/>
<path d="M190 515.3H272L268 438.6L190 515.3Z" fill="#030303" fill-opacity="0.95" stroke="#030303" stroke-opacity="0.95" stroke-linejoin="bevel"/>
<path d="M268 438.6L272 515.3L366 435.6L268 438.6Z" fill="#050505" fill-opacity="0.95" stroke="#050505" stroke-opacity="0.95" stroke-linejoin="bevel"/>
<path d="M709 600L716 510.3L620 508.3L709 600Z" fill="#0F0F0F" fill-opacity="0.95" stroke="#0F0F0F" stroke-opacity="0.95" stroke-linejoin="bevel"/>
<path d="M620 508.3L716 510.3L634 435.6L620 508.3Z" fill="#0B0B0B" fill-opacity="0.95" stroke="#0B0B0B" stroke-opacity="0.95" stroke-linejoin="bevel"/>
<path d="M448 600H548L455 521.3L448 600Z" fill="#0D0D0D" fill-opacity="0.95" stroke="#0D0D0D" stroke-opacity="0.95" stroke-linejoin="bevel"/>
<path d="M451 0H353L357 90.7L451 0Z" fill="#030303" fill-opacity="0.95" stroke="#030303" stroke-opacity="0.95" stroke-linejoin="bevel"/>
<path d="M808 333.9V258.1L719 335.9L808 333.9Z" fill="#131313" fill-opacity="0.95" stroke="#131313" stroke-opacity="0.95" stroke-linejoin="bevel"/>
<path d="M728 170.4L816 81.7L723 85.7L728 170.4Z" fill="#0F0F0F" fill-opacity="0.95" stroke="#0F0F0F" stroke-opacity="0.95" stroke-linejoin="bevel"/>
<path d="M808 333.9L719 335.9L721 421.6L808 333.9Z" fill="black" fill-opacity="0.95" stroke="black" stroke-opacity="0.95" stroke-linejoin="bevel"/>
<path d="M811 433.6L808 333.9L721 421.6L811 433.6Z" fill="#0D0D0D" fill-opacity="0.95" stroke="#0D0D0D" stroke-opacity="0.95" stroke-linejoin="bevel"/>
<path d="M262 83.7L189 169.4L270 178.4L262 83.7Z" fill="black" fill-opacity="0.95" stroke="black" stroke-opacity="0.95" stroke-linejoin="bevel"/>
<path d="M81 250.1L169 334.9L190 251.1L81 250.1Z" fill="#161616" fill-opacity="0.95" stroke="#161616" stroke-opacity="0.95" stroke-linejoin="bevel"/>
<path d="M190 251.1L169 334.9L272 338.9L190 251.1Z" fill="#030303" fill-opacity="0.95" stroke="#030303" stroke-opacity="0.95" stroke-linejoin="bevel"/>
<path d="M723 85.7L638 0L622 84.7L723 85.7Z" fill="#161616" fill-opacity="0.95" stroke="#161616" stroke-opacity="0.95" stroke-linejoin="bevel"/>
<path d="M169 334.9L184 422.6L272 338.9L169 334.9Z" fill="#080808" fill-opacity="0.95" stroke="#080808" stroke-opacity="0.95" stroke-linejoin="bevel"/>
<path d="M272 515.3L359 600L369 523.3L272 515.3Z" fill="#050505" fill-opacity="0.95" stroke="#050505" stroke-opacity="0.95" stroke-linejoin="bevel"/>
<path d="M548 600H625L620 508.3L548 600Z" fill="#161616" fill-opacity="0.95" stroke="#161616" stroke-opacity="0.95" stroke-linejoin="bevel"/>
<path d="M900 250.1L816 180.4L808 258.1L900 250.1Z" fill="#161616" fill-opacity="0.95" stroke="#161616" stroke-opacity="0.95" stroke-linejoin="bevel"/>
<path d="M808 258.1L816 180.4L728 170.4L808 258.1Z" fill="#030303" fill-opacity="0.95" stroke="#030303" stroke-opacity="0.95" stroke-linejoin="bevel"/>
<path d="M716 510.3L811 433.6L721 421.6L716 510.3Z" fill="#0F0F0F" fill-opacity="0.95" stroke="#0F0F0F" stroke-opacity="0.95" stroke-linejoin="bevel"/>
<path d="M808 333.9L900 250.1L808 258.1V333.9Z" fill="#080808" fill-opacity="0.95" stroke="#080808" stroke-opacity="0.95" stroke-linejoin="bevel"/>
<path d="M811 515.3V433.6L716 510.3L811 515.3Z" fill="#141414" fill-opacity="0.95" stroke="#141414" stroke-opacity="0.95" stroke-linejoin="bevel"/>
<path d="M353 0H271L262 83.7L353 0Z" fill="#050505" fill-opacity="0.95" stroke="#050505" stroke-opacity="0.95" stroke-linejoin="bevel"/>
<path d="M262 83.7L185 85.7L189 169.4L262 83.7Z" fill="#0F0F0F" fill-opacity="0.95" stroke="#0F0F0F" stroke-opacity="0.95" stroke-linejoin="bevel"/>
<path d="M812 0H712L723 85.7L812 0Z" fill="#0B0B0B" fill-opacity="0.95" stroke="#0B0B0B" stroke-opacity="0.95" stroke-linejoin="bevel"/>
<path d="M723 85.7L712 0H638L723 85.7Z" fill="#141414" fill-opacity="0.95" stroke="#141414" stroke-opacity="0.95" stroke-linejoin="bevel"/>
<path d="M189 0L185 85.7L262 83.7L189 0Z" fill="#111111" fill-opacity="0.95" stroke="#111111" stroke-opacity="0.95" stroke-linejoin="bevel"/>
<path d="M83 173.4L81 250.1L190 251.1L83 173.4Z" fill="#0B0B0B" fill-opacity="0.95" stroke="#0B0B0B" stroke-opacity="0.95" stroke-linejoin="bevel"/>
<path d="M184 422.6L190 515.3L268 438.6L184 422.6Z" fill="#0B0B0B" fill-opacity="0.95" stroke="#0B0B0B" stroke-opacity="0.95" stroke-linejoin="bevel"/>
<path d="M272 515.3L260 600H359L272 515.3Z" fill="#141414" fill-opacity="0.95" stroke="#141414" stroke-opacity="0.95" stroke-linejoin="bevel"/>
<path d="M85 512.3L190 515.3L184 422.6L85 512.3Z" fill="#161616" fill-opacity="0.95" stroke="#161616" stroke-opacity="0.95" stroke-linejoin="bevel"/>
<path d="M625 600H709L620 508.3L625 600Z" fill="#131313" fill-opacity="0.95" stroke="#131313" stroke-opacity="0.95" stroke-linejoin="bevel"/>
<path d="M816 180.4V81.7L728 170.4L816 180.4Z" fill="#050505" fill-opacity="0.95" stroke="#050505" stroke-opacity="0.95" stroke-linejoin="bevel"/>
<path d="M190 515.3L260 600L272 515.3H190Z" fill="#131313" fill-opacity="0.95" stroke="#131313" stroke-opacity="0.95" stroke-linejoin="bevel"/>
<path d="M709 600L811 515.3L716 510.3L709 600Z" fill="#0D0D0D" fill-opacity="0.95" stroke="#0D0D0D" stroke-opacity="0.95" stroke-linejoin="bevel"/>
<path d="M900 350.9V250.1L808 333.9L900 350.9Z" fill="#0F0F0F" fill-opacity="0.95" stroke="#0F0F0F" stroke-opacity="0.95" stroke-linejoin="bevel"/>
<path d="M83 173.4L190 251.1L189 169.4L83 173.4Z" fill="#161616" fill-opacity="0.95" stroke="#161616" stroke-opacity="0.95" stroke-linejoin="bevel"/>
<path d="M169 334.9L80 339.9L184 422.6L169 334.9Z" fill="#131313" fill-opacity="0.95" stroke="#131313" stroke-opacity="0.95" stroke-linejoin="bevel"/>
<path d="M900 350.9L808 333.9L811 433.6L900 350.9Z" fill="black" fill-opacity="0.95" stroke="black" stroke-opacity="0.95" stroke-linejoin="bevel"/>
<path d="M816 180.4L900 90.7L816 81.7V180.4Z" fill="#0D0D0D" fill-opacity="0.95" stroke="#0D0D0D" stroke-opacity="0.95" stroke-linejoin="bevel"/>
<path d="M81 250.1L80 339.9L169 334.9L81 250.1Z" fill="#0D0D0D" fill-opacity="0.95" stroke="#0D0D0D" stroke-opacity="0.95" stroke-linejoin="bevel"/>
<path d="M900 438.6V350.9L811 433.6L900 438.6Z" fill="#0F0F0F" fill-opacity="0.95" stroke="#0F0F0F" stroke-opacity="0.95" stroke-linejoin="bevel"/>
<path d="M271 0H189L262 83.7L271 0Z" fill="#030303" fill-opacity="0.95" stroke="#030303" stroke-opacity="0.95" stroke-linejoin="bevel"/>
<path d="M88 92.7L83 173.4L189 169.4L88 92.7Z" fill="#0F0F0F" fill-opacity="0.95" stroke="#0F0F0F" stroke-opacity="0.95" stroke-linejoin="bevel"/>
<path d="M88 92.7L189 169.4L185 85.7L88 92.7Z" fill="#0B0B0B" fill-opacity="0.95" stroke="#0B0B0B" stroke-opacity="0.95" stroke-linejoin="bevel"/>
<path d="M900 250.1V180.4H816L900 250.1Z" fill="black" fill-opacity="0.95" stroke="black" stroke-opacity="0.95" stroke-linejoin="bevel"/>
<path d="M816 81.7L812 0L723 85.7L816 81.7Z" fill="#0D0D0D" fill-opacity="0.95" stroke="#0D0D0D" stroke-opacity="0.95" stroke-linejoin="bevel"/>
<path d="M900 0H812L816 81.7L900 0Z" fill="#141414" fill-opacity="0.95" stroke="#141414" stroke-opacity="0.95" stroke-linejoin="bevel"/>
<path d="M80 339.9L81 436.6L184 422.6L80 339.9Z" fill="#050505" fill-opacity="0.95" stroke="#050505" stroke-opacity="0.95" stroke-linejoin="bevel"/>
<path d="M190 515.3L175 600H260L190 515.3Z" fill="#030303" fill-opacity="0.95" stroke="#030303" stroke-opacity="0.95" stroke-linejoin="bevel"/>
<path d="M811 515.3L900 438.6L811 433.6V515.3Z" fill="#161616" fill-opacity="0.95" stroke="#161616" stroke-opacity="0.95" stroke-linejoin="bevel"/>
<path d="M85 512.3L175 600L190 515.3L85 512.3Z" fill="#080808" fill-opacity="0.95" stroke="#080808" stroke-opacity="0.95" stroke-linejoin="bevel"/>
<path d="M87 0L88 92.7L185 85.7L87 0Z" fill="#0F0F0F" fill-opacity="0.95" stroke="#0F0F0F" stroke-opacity="0.95" stroke-linejoin="bevel"/>
<path d="M709 600H818L811 515.3L709 600Z" fill="#030303" fill-opacity="0.95" stroke="#030303" stroke-opacity="0.95" stroke-linejoin="bevel"/>
<path d="M811 515.3L900 520.3V438.6L811 515.3Z" fill="black" fill-opacity="0.95" stroke="black" stroke-opacity="0.95" stroke-linejoin="bevel"/>
<path d="M900 180.4V90.7L816 180.4H900Z" fill="#141414" fill-opacity="0.95" stroke="#141414" stroke-opacity="0.95" stroke-linejoin="bevel"/>
<path d="M81 436.6L85 512.3L184 422.6L81 436.6Z" fill="#111111" fill-opacity="0.95" stroke="#111111" stroke-opacity="0.95" stroke-linejoin="bevel"/>
<path d="M818 600L900 520.3L811 515.3L818 600Z" fill="#0B0B0B" fill-opacity="0.95" stroke="#0B0B0B" stroke-opacity="0.95" stroke-linejoin="bevel"/>
<path d="M0 176.4L81 250.1L83 173.4L0 176.4Z" fill="#0D0D0D" fill-opacity="0.95" stroke="#0D0D0D" stroke-opacity="0.95" stroke-linejoin="bevel"/>
<path d="M0 176.4V254.1L81 250.1L0 176.4Z" fill="#111111" fill-opacity="0.95" stroke="#111111" stroke-opacity="0.95" stroke-linejoin="bevel"/>
<path d="M81 250.1L0 254.1L80 339.9L81 250.1Z" fill="#161616" fill-opacity="0.95" stroke="#161616" stroke-opacity="0.95" stroke-linejoin="bevel"/>
<path d="M80 339.9L0 436.6H81L80 339.9Z" fill="#0B0B0B" fill-opacity="0.95" stroke="#0B0B0B" stroke-opacity="0.95" stroke-linejoin="bevel"/>
<path d="M81 436.6L0 507.3L85 512.3L81 436.6Z" fill="#0D0D0D" fill-opacity="0.95" stroke="#0D0D0D" stroke-opacity="0.95" stroke-linejoin="bevel"/>
<path d="M0 254.1V337.9L80 339.9L0 254.1Z" fill="#141414" fill-opacity="0.95" stroke="#141414" stroke-opacity="0.95" stroke-linejoin="bevel"/>
<path d="M189 0H87L185 85.7L189 0Z" fill="#0F0F0F" fill-opacity="0.95" stroke="#0F0F0F" stroke-opacity="0.95" stroke-linejoin="bevel"/>
<path d="M88 92.7L0 176.4L83 173.4L88 92.7Z" fill="#030303" fill-opacity="0.95" stroke="#030303" stroke-opacity="0.95" stroke-linejoin="bevel"/>
<path d="M900 90.7V0L816 81.7L900 90.7Z" fill="#0D0D0D" fill-opacity="0.95" stroke="#0D0D0D" stroke-opacity="0.95" stroke-linejoin="bevel"/>
<path d="M0 75.7V176.4L88 92.7L0 75.7Z" fill="#0F0F0F" fill-opacity="0.95" stroke="#0F0F0F" stroke-opacity="0.95" stroke-linejoin="bevel"/>
<path d="M85 512.3L94 600H175L85 512.3Z" fill="#030303" fill-opacity="0.95" stroke="#030303" stroke-opacity="0.95" stroke-linejoin="bevel"/>
<path d="M0 600H94L85 512.3L0 600Z" fill="#141414" fill-opacity="0.95" stroke="#141414" stroke-opacity="0.95" stroke-linejoin="bevel"/>
<path d="M0 337.9V436.6L80 339.9L0 337.9Z" fill="#111111" fill-opacity="0.95" stroke="#111111" stroke-opacity="0.95" stroke-linejoin="bevel"/>
<path d="M818 600H900V520.3L818 600Z" fill="#0F0F0F" fill-opacity="0.95" stroke="#0F0F0F" stroke-opacity="0.95" stroke-linejoin="bevel"/>
<path d="M87 0L0 75.7L88 92.7L87 0Z" fill="#0F0F0F" fill-opacity="0.95" stroke="#0F0F0F" stroke-opacity="0.95" stroke-linejoin="bevel"/>
<path d="M0 436.6V507.3L81 436.6H0Z" fill="#131313" fill-opacity="0.95" stroke="#131313" stroke-opacity="0.95" stroke-linejoin="bevel"/>
<path d="M87 0H0V75.7L87 0Z" fill="#161616" fill-opacity="0.95" stroke="#161616" stroke-opacity="0.95" stroke-linejoin="bevel"/>
<path d="M0 507.3V600L85 512.3L0 507.3Z" fill="#0D0D0D" fill-opacity="0.95" stroke="#0D0D0D" stroke-opacity="0.95" stroke-linejoin="bevel"/>
</g>
<defs>
<clipPath id="clip0_44_2">
<rect width="900" height="600" fill="white"/>
</clipPath>
</defs>
</svg>
